<svg width="40" height="40" viewBox="0 0 40 40" fill="none" xmlns="http://www.w3.org/2000/svg">
<path d="M36.2502 33.125H30.5939C33.6881 30.6236 35.7982 27.1088 36.5514 23.2019C37.3045 19.2951 36.6522 15.2477 34.7097 11.7754C32.7672 8.30297 29.6596 5.62915 25.9362 4.22653C22.2128 2.8239 18.1135 2.78281 14.3627 4.1105C10.612 5.4382 7.45141 8.04919 5.43967 11.4819C3.42794 14.9147 2.6946 18.9481 3.36928 22.8693C4.04395 26.7905 6.08321 30.3469 9.12656 32.9098C12.1699 35.4728 16.0214 36.8773 20.0002 36.875H36.2502C36.7475 36.875 37.2244 36.6775 37.576 36.3259C37.9277 35.9742 38.1252 35.4973 38.1252 35C38.1252 34.5028 37.9277 34.0259 37.576 33.6742C37.2244 33.3226 36.7475 33.125 36.2502 33.125ZM6.8752 20C6.8752 17.4042 7.64497 14.8666 9.08716 12.7082C10.5294 10.5498 12.5792 8.86753 14.9775 7.87413C17.3758 6.88073 20.0148 6.62081 22.5608 7.12724C25.1068 7.63367 27.4454 8.88371 29.281 10.7193C31.1165 12.5548 32.3666 14.8935 32.873 17.4395C33.3794 19.9855 33.1195 22.6245 32.1261 25.0228C31.1327 27.421 29.4505 29.4709 27.2921 30.9131C25.1337 32.3553 22.5961 33.125 20.0002 33.125C16.5204 33.1213 13.1841 31.7373 10.7235 29.2767C8.26293 26.8161 6.87892 23.4799 6.8752 20ZM16.8752 13.125C16.8752 12.507 17.0585 11.9028 17.4019 11.3889C17.7452 10.875 18.2333 10.4744 18.8043 10.2379C19.3753 10.0014 20.0037 9.93951 20.6099 10.0601C21.216 10.1807 21.7729 10.4783 22.2099 10.9153C22.6469 11.3524 22.9446 11.9092 23.0652 12.5154C23.1857 13.1216 23.1238 13.7499 22.8873 14.3209C22.6508 14.892 22.2503 15.38 21.7364 15.7234C21.2225 16.0668 20.6183 16.25 20.0002 16.25C19.1714 16.25 18.3765 15.9208 17.7905 15.3348C17.2044 14.7487 16.8752 13.9538 16.8752 13.125ZM20.0002 30C19.3821 30 18.7779 29.8168 18.264 29.4734C17.7501 29.13 17.3496 28.642 17.1131 28.0709C16.8766 27.4999 16.8147 26.8716 16.9352 26.2654C17.0558 25.6592 17.3535 25.1024 17.7905 24.6653C18.2275 24.2283 18.7844 23.9307 19.3905 23.8101C19.9967 23.6895 20.6251 23.7514 21.1961 23.9879C21.7671 24.2244 22.2552 24.625 22.5985 25.1389C22.9419 25.6528 23.1252 26.257 23.1252 26.875C23.1252 27.2854 23.0444 27.6918 22.8873 28.0709C22.7303 28.4501 22.5001 28.7946 22.2099 29.0848C21.9197 29.3749 21.5752 29.6051 21.1961 29.7622C20.8169 29.9192 20.4106 30 20.0002 30ZM23.7502 20C23.7502 19.382 23.9335 18.7778 24.2769 18.2639C24.6202 17.75 25.1083 17.3494 25.6793 17.1129C26.2503 16.8764 26.8787 16.8145 27.4849 16.9351C28.091 17.0557 28.6479 17.3533 29.0849 17.7903C29.5219 18.2274 29.8196 18.7842 29.9402 19.3904C30.0607 19.9966 29.9988 20.6249 29.7623 21.1959C29.5258 21.767 29.1253 22.255 28.6114 22.5984C28.0975 22.9418 27.4933 23.125 26.8752 23.125C26.0464 23.125 25.2515 22.7958 24.6655 22.2098C24.0794 21.6237 23.7502 20.8288 23.7502 20ZM16.2502 20C16.2502 20.6181 16.0669 21.2223 15.7235 21.7362C15.3802 22.2501 14.8921 22.6506 14.3211 22.8872C13.7501 23.1237 13.1217 23.1856 12.5155 23.065C11.9094 22.9444 11.3525 22.6468 10.9155 22.2098C10.4785 21.7727 10.1808 21.2159 10.0602 20.6097C9.93967 20.0035 10.0016 19.3752 10.2381 18.8042C10.4746 18.2331 10.8751 17.7451 11.389 17.4017C11.9029 17.0583 12.5071 16.875 13.1252 16.875C13.954 16.875 14.7489 17.2043 15.3349 17.7903C15.921 18.3764 16.2502 19.1712 16.2502 20Z" fill="#00317B"/>
</svg>
