<svg width="40" height="40" viewBox="0 0 40 40" fill="none" xmlns="http://www.w3.org/2000/svg">
<path d="M35 16.8749H5C4.50272 16.8749 4.02581 17.0724 3.67417 17.4241C3.32254 17.7757 3.125 18.2526 3.125 18.7499C3.13063 21.7722 3.94502 24.738 5.48365 27.3394C7.02228 29.9407 9.22907 32.0829 11.875 33.5436V33.7499C11.875 34.5787 12.2042 35.3735 12.7903 35.9596C13.3763 36.5456 14.1712 36.8749 15 36.8749H25C25.8288 36.8749 26.6237 36.5456 27.2097 35.9596C27.7958 35.3735 28.125 34.5787 28.125 33.7499V33.5436C30.7709 32.0829 32.9777 29.9407 34.5164 27.3394C36.055 24.738 36.8694 21.7722 36.875 18.7499C36.875 18.2526 36.6775 17.7757 36.3258 17.4241C35.9742 17.0724 35.4973 16.8749 35 16.8749ZM25.4688 30.6858C25.1426 30.8353 24.8662 31.0752 24.6723 31.3771C24.4784 31.679 24.3753 32.0302 24.375 32.3889V33.1249H15.625V32.3889C15.6247 32.0302 15.5216 31.679 15.3277 31.3771C15.1338 31.0752 14.8574 30.8353 14.5312 30.6858C12.5393 29.7674 10.8082 28.3662 9.49493 26.6093C8.18167 24.8523 7.32786 22.7953 7.01094 20.6249H32.9891C32.6721 22.7953 31.8183 24.8523 30.5051 26.6093C29.1918 28.3662 27.4607 29.7674 25.4688 30.6858ZM11.7078 7.83582C12.0103 7.51318 12.2588 7.14386 12.4438 6.74207C11.9963 6.56507 11.6341 6.22284 11.4319 5.78619C11.2298 5.34954 11.2033 4.8519 11.3578 4.39623C11.5124 3.94057 11.8362 3.56177 12.2623 3.33821C12.6884 3.11465 13.1841 3.06345 13.6469 3.1952C14.5328 3.45145 15.7094 4.23113 16.1109 5.58582C16.5344 7.01395 16.0063 8.5952 14.5484 10.2858C14.2459 10.6085 13.9974 10.9778 13.8125 11.3796C14.2193 11.5393 14.5575 11.836 14.7687 12.2185C14.9799 12.6011 15.0509 13.0454 14.9694 13.4747C14.8878 13.904 14.6589 14.2914 14.3222 14.5698C13.9854 14.8483 13.562 15.0004 13.125 14.9999C12.9489 15.0003 12.7737 14.9756 12.6047 14.9264C11.7188 14.6702 10.5406 13.8905 10.1391 12.5358C9.71562 11.1077 10.2438 9.53113 11.7078 7.83582ZM18.5828 7.83582C18.8853 7.51318 19.1338 7.14386 19.3188 6.74207C18.8713 6.56507 18.5091 6.22284 18.3069 5.78619C18.1048 5.34954 18.0783 4.8519 18.2328 4.39623C18.3874 3.94057 18.7112 3.56177 19.1373 3.33821C19.5634 3.11465 20.0591 3.06345 20.5219 3.1952C21.4078 3.45145 22.5844 4.23113 22.9859 5.58582C23.4094 7.01395 22.8813 8.5952 21.4234 10.2858C21.1209 10.6085 20.8724 10.9778 20.6875 11.3796C21.0943 11.5393 21.4325 11.836 21.6437 12.2185C21.8549 12.6011 21.9259 13.0454 21.8444 13.4747C21.7628 13.904 21.5339 14.2914 21.1972 14.5698C20.8604 14.8483 20.437 15.0004 20 14.9999C19.8239 15.0003 19.6487 14.9756 19.4797 14.9264C18.5938 14.6702 17.4156 13.8905 17.0141 12.5358C16.5906 11.1077 17.1187 9.53113 18.5828 7.83582ZM25.4578 7.83582C25.7603 7.51318 26.0088 7.14386 26.1938 6.74207C25.7463 6.56507 25.3841 6.22284 25.1819 5.78619C24.9798 5.34954 24.9533 4.8519 25.1078 4.39623C25.2624 3.94057 25.5862 3.56177 26.0123 3.33821C26.4384 3.11465 26.9341 3.06345 27.3969 3.1952C28.2828 3.45145 29.4594 4.23113 29.8609 5.58582C30.2844 7.01395 29.7563 8.5952 28.2984 10.2858C27.9959 10.6085 27.7474 10.9778 27.5625 11.3796C27.9693 11.5393 28.3075 11.836 28.5187 12.2185C28.7299 12.6011 28.8009 13.0454 28.7194 13.4747C28.6378 13.904 28.4089 14.2914 28.0722 14.5698C27.7354 14.8483 27.312 15.0004 26.875 14.9999C26.6989 15.0003 26.5237 14.9756 26.3547 14.9264C25.4688 14.6702 24.2906 13.8905 23.8891 12.5358C23.4656 11.1077 23.9937 9.53113 25.4578 7.83582Z" fill="#00317B"/>
</svg>
