<svg width="195" height="46" viewBox="0 0 195 46" fill="none" xmlns="http://www.w3.org/2000/svg">
<path d="M22.9691 0.543213C21.3398 0.543213 18.0054 0.656583 16.414 0.845533C7.13084 1.97923 1.97773 4.43559 0.841015 16.4528C0.841015 16.4528 0.5 20.2696 0.5 23.8219C0.5 26.9962 0.841015 29.4904 0.841015 29.4904C1.97773 41.5076 7.09295 43.964 16.414 45.0977C18.0433 45.2866 21.3398 45.4 23.007 45.4C24.6363 45.4 27.9706 45.2866 29.5999 45.0977C38.8831 43.964 44.0362 41.5076 45.1729 29.4904C45.1729 29.4904 45.514 27.4119 45.514 23.2928C45.514 18.6446 45.1729 16.4906 45.1729 16.4906C44.0362 4.47338 38.921 2.01702 29.5999 0.883323C27.9327 0.656583 24.6363 0.543213 22.9691 0.543213Z" fill="#FF6500"/>
<path d="M33.0861 20.95L17.551 12.0316C15.9596 11.1246 13.9514 12.2583 13.9893 14.11V32.0225C13.9893 33.8742 15.9975 35.0079 17.5889 34.0632L33.0861 25.0691C34.6775 24.1622 34.6396 21.8948 33.0861 20.95Z" fill="white"/>
<path d="M54.4166 9.53638H71.5431V14.3357H59.5318V20.8734H70.3306V25.6727H59.5318V36.4051H54.4545L54.4166 9.53638C54.3787 9.53638 54.3787 9.53638 54.4166 9.53638Z" fill="#FF6500"/>
<path d="M75.4478 36.4804V9.53613H84.9583C86.2466 9.53613 87.459 9.72508 88.5579 10.1408C89.6946 10.5565 90.6419 11.1233 91.4754 11.8791C92.309 12.6349 92.9532 13.5419 93.4458 14.5622C93.9383 15.6203 94.1657 16.754 94.1657 18.0011C94.1657 19.286 93.9383 20.4574 93.4458 21.4778C92.9532 22.5359 92.309 23.4051 91.4754 24.1609C90.6419 24.9167 89.6567 25.4835 88.5579 25.8992C87.4212 26.3149 86.2466 26.5039 84.9583 26.5039H80.563V36.367L75.4478 36.4804ZM85.0341 21.7423C86.3602 21.7423 87.3833 21.3644 88.0653 20.6086C88.7473 19.8528 89.0883 18.9836 89.0883 18.0011C89.0883 17.5098 89.0126 17.0563 88.861 16.6029C88.7094 16.1494 88.4442 15.7715 88.1032 15.4314C87.7622 15.0913 87.3454 14.8267 86.8528 14.6378C86.3602 14.4488 85.754 14.3355 85.0719 14.3355H80.6009V21.7423H85.0341Z" fill="#FF6500"/>
<path d="M103.56 36.4804V14.3733H96.02V9.53613H116.178V14.3355H108.638V36.4426L103.56 36.4804Z" fill="#FF6500"/>
<path d="M125.161 36.4804V9.53613H134.671C135.959 9.53613 137.172 9.72508 138.271 10.1408C139.408 10.5565 140.355 11.1233 141.188 11.8791C142.022 12.6349 142.666 13.5419 143.159 14.5622C143.651 15.6203 143.879 16.754 143.879 18.0011C143.879 19.286 143.651 20.4574 143.159 21.4778C142.666 22.5359 142.022 23.4051 141.188 24.1609C140.355 24.9167 139.37 25.4835 138.271 25.8992C137.134 26.3149 135.959 26.5039 134.671 26.5039H130.276V36.367L125.161 36.4804ZM134.747 21.7423C136.073 21.7423 137.096 21.3644 137.778 20.6086C138.46 19.8528 138.801 18.9836 138.801 18.0011C138.801 17.5098 138.725 17.0563 138.574 16.6029C138.422 16.1494 138.157 15.7715 137.816 15.4314C137.475 15.0913 137.058 14.8267 136.566 14.6378C136.073 14.4488 135.467 14.3355 134.785 14.3355H130.314V21.7423H134.747Z" fill="#FF6500"/>
<path d="M147.021 36.4804V9.53613H152.099V36.4804H147.021Z" fill="#FF6500"/>
<path d="M167.485 34.5165H167.182C166.614 35.2345 165.894 35.8391 165.098 36.3304C164.265 36.8217 163.241 37.0862 161.953 37.0862C161.006 37.0862 160.097 36.9351 159.263 36.6327C158.429 36.3304 157.672 35.8769 157.065 35.3479C156.421 34.781 155.929 34.1386 155.588 33.345C155.247 32.5514 155.057 31.72 155.057 30.7753C155.057 29.8305 155.247 28.9614 155.625 28.2056C156.004 27.4498 156.535 26.7695 157.217 26.2405C157.899 25.6736 158.695 25.2579 159.604 24.9934C160.513 24.6911 161.536 24.5777 162.597 24.5777C163.81 24.5777 164.795 24.6911 165.591 24.8422C166.386 25.0312 167.031 25.2201 167.523 25.4091V24.8422C167.523 23.8597 167.144 23.0661 166.349 22.4237C165.553 21.7813 164.606 21.4789 163.431 21.4789C161.726 21.4789 160.286 22.1969 159.111 23.633L155.55 21.2144C155.55 21.2144 155.55 21.2144 155.55 21.1766C157.52 18.7203 160.172 17.511 163.582 17.511C166.462 17.511 168.66 18.1912 170.138 19.5139C171.653 20.8743 172.411 22.8394 172.411 25.4847V36.5572H167.561V34.5165H167.485ZM167.485 28.9992C166.917 28.6968 166.311 28.5079 165.704 28.3189C165.098 28.1678 164.416 28.0922 163.696 28.0922C162.522 28.0922 161.612 28.3567 160.968 28.848C160.362 29.3393 160.059 29.9061 160.021 30.6241C159.983 31.4933 160.513 32.3247 161.271 32.7782C161.802 33.0805 162.408 33.2316 163.09 33.2316C163.734 33.2316 164.34 33.1183 164.909 32.8915C165.477 32.6648 165.932 32.3247 166.311 31.9468C166.69 31.5689 166.993 31.1154 167.22 30.5863C167.372 30.0951 167.485 29.566 167.485 28.9992Z" fill="#FF6500"/>
<path d="M181.693 35.5751L173.925 18.0405H179.533L184.194 29.2264H184.459L188.93 18.0405H194.5L182.905 44.6069H177.601L181.693 35.5751Z" fill="#FF6500"/>
</svg>
