<svg width="169" height="63" viewBox="0 0 169 63" fill="none" xmlns="http://www.w3.org/2000/svg">
<path d="M151.931 34.4713H97.0249C97.0955 34.3402 97.1435 34.2433 97.2 34.1522C98.4655 32.0577 99.7366 29.9661 100.991 27.866C101.146 27.6067 101.316 27.524 101.607 27.524C108.377 27.5326 115.148 27.5297 121.922 27.5297C122.083 27.5297 122.244 27.5127 122.419 27.4642C121.758 26.7917 121.04 26.2047 120.343 25.5949C119.648 24.9879 118.947 24.3867 118.249 23.7854C117.543 23.1756 116.837 22.5629 116.131 21.9531C115.425 21.3433 114.719 20.7307 114.012 20.1209C113.315 19.5167 112.617 18.9126 111.919 18.3114C111.213 17.7016 110.507 17.0889 109.801 16.4791C109.095 15.8693 108.389 15.2566 107.682 14.6468C106.985 14.0427 106.287 13.4414 105.589 12.8373C104.883 12.2275 104.177 11.6149 103.471 11.0051C102.765 10.3953 102.058 9.78259 101.352 9.17278C100.655 8.56867 99.9569 7.96456 99.2592 7.3633C98.553 6.75349 97.8469 6.14083 97.1407 5.53103C96.4345 4.92122 95.7284 4.30856 95.0222 3.69875C94.3245 3.09464 93.6268 2.49053 92.9291 1.88927C92.2258 1.27946 91.5196 0.6725 90.8389 0C90.9377 0.0256462 91.0366 0.0455932 91.1326 0.074089C96.347 1.64136 101.553 3.23142 106.773 4.77589C114.357 7.02135 121.95 9.22408 129.537 11.4638C136.757 13.5953 143.963 15.7724 151.098 18.1831C153.953 19.1491 156.801 20.1408 159.586 21.3034C161.233 21.9902 162.837 22.7681 164.343 23.7398C165.3 24.3582 166.198 25.0478 166.969 25.8969C167.582 26.5723 168.091 27.316 168.334 28.2051C168.616 29.2423 168.537 30.2625 168.111 31.2513C167.676 32.2543 167.017 33.0893 166.218 33.8159C165.162 34.7762 163.967 35.5314 162.718 36.2067C161.572 36.8251 160.385 37.3608 159.179 37.8481C159.06 37.8965 158.945 37.9535 158.747 38.0418C159.614 38.5605 160.428 38.9964 161.23 39.4581C162.029 39.9169 162.828 40.3699 163.628 40.8259C164.436 41.2875 165.241 41.752 166.116 42.2535C165.972 42.2706 165.905 42.2877 165.837 42.2877C159.704 42.2877 153.572 42.2905 147.44 42.282C143.324 42.2763 139.211 42.2307 135.096 42.2307C121.015 42.225 106.934 42.2307 92.8529 42.2307H92.3642C92.4235 42.1025 92.4546 42.0113 92.5026 41.9315C93.463 40.3386 94.429 38.7485 95.3866 37.1528C95.4855 36.9875 95.5984 36.902 95.7933 36.9219C95.8922 36.9333 95.9939 36.9219 96.0956 36.9219C114.1 36.9219 132.105 36.9219 150.109 36.9276C151.301 36.9276 152.482 36.8564 153.66 36.694C155.168 36.486 156.668 36.2153 158.142 35.8249C159.902 35.3575 161.614 34.762 163.207 33.8587C164.032 33.3913 164.8 32.8471 165.461 32.1603C165.806 31.8013 166.108 31.408 166.34 30.9663C166.944 29.8037 166.893 28.6639 166.204 27.5554C165.868 27.014 165.424 26.5666 164.933 26.1648C164.269 25.6205 163.54 25.1788 162.78 24.7856C161.139 23.9364 159.413 23.3095 157.659 22.7567C153.177 21.3462 148.632 20.1921 144.022 19.2916C141.573 18.8129 139.113 18.3684 136.649 17.9637C134.672 17.6389 132.684 17.3796 130.695 17.1174C128.997 16.8951 127.294 16.6985 125.591 16.5076C123.933 16.3224 122.272 16.1571 120.611 15.989C120.009 15.9291 119.405 15.8835 118.803 15.8351C118.718 15.8294 118.634 15.8351 118.56 15.8351C118.543 15.8778 118.538 15.8892 118.538 15.8978C118.538 15.9063 118.549 15.9177 118.555 15.9263C118.563 15.9348 118.572 15.9434 118.58 15.9491C118.597 15.9633 118.614 15.9776 118.634 15.989C118.673 16.0118 118.713 16.0346 118.749 16.0545C129.797 22.1754 140.844 28.2934 151.891 34.4143C151.9 34.42 151.903 34.4343 151.928 34.4742L151.931 34.4713Z" fill="#036EAF"/>
<path d="M0.5 49.1695C0.581916 49.0299 0.62711 48.9444 0.683604 48.8646C1.44344 47.7732 2.20893 46.6847 2.96312 45.5876C3.0987 45.3909 3.24276 45.2798 3.48568 45.3112C3.57324 45.3226 3.66363 45.3112 3.75402 45.3112C57.8889 45.3112 112.027 45.3112 166.161 45.3112C166.325 45.3112 166.489 45.3112 166.698 45.3112C166.625 45.4365 166.585 45.5135 166.534 45.5847C165.774 46.6761 165.006 47.7646 164.258 48.8617C164.102 49.0925 163.93 49.1837 163.65 49.1837C161.958 49.1723 160.264 49.178 158.572 49.178C106.072 49.178 53.5728 49.178 1.07341 49.178C0.898279 49.178 0.725974 49.1723 0.5 49.1666L0.5 49.1695Z" fill="#036EAF"/>
<path d="M55.3212 34.0952C55.3014 33.3543 55.2816 32.6476 55.2618 31.9038C55.0556 31.8924 54.8946 31.8753 54.7308 31.8753C51.4231 31.8753 48.1154 31.8753 44.8077 31.8753C38.037 31.8753 31.2662 31.8753 24.4927 31.8753C24.3373 31.8753 24.1819 31.8753 24.0209 31.8753C24.0181 31.8126 24.0012 31.7699 24.0181 31.75C24.261 31.4394 24.5011 31.1259 24.7554 30.8267C24.8119 30.7583 24.9248 30.7213 25.0152 30.707C25.148 30.6871 25.2836 30.6985 25.4192 30.6985C35.1389 30.6985 44.8586 30.6985 54.5783 30.6985C54.7675 30.6985 54.9539 30.6985 55.1262 30.6985C55.2195 30.4363 55.1799 28.8092 55.0754 28.4701C53.5162 28.4416 51.94 28.4615 50.3638 28.4587C48.7933 28.4559 47.2256 28.4587 45.6551 28.4587H31.4611C29.885 28.4587 28.3088 28.4587 26.6507 28.4587C26.984 28.0455 27.2693 27.6893 27.5603 27.3388C27.597 27.2961 27.6789 27.2818 27.741 27.2761C27.8399 27.2647 27.9416 27.2733 28.0433 27.2733C38.4578 27.2733 48.8724 27.2733 59.287 27.2733C59.431 27.2733 59.5723 27.2733 59.7531 27.2733C59.8915 30.1343 60.0299 32.9639 60.1683 35.8106C60.3632 35.765 60.3971 35.6168 60.4621 35.5114C61.3885 34.0296 62.315 32.5478 63.2387 31.0632C63.9675 29.8949 64.7019 28.7323 65.4165 27.5582C65.5521 27.336 65.7018 27.2619 65.956 27.2647C67.0435 27.279 68.131 27.2704 69.2185 27.2704H69.5858C69.5067 27.4129 69.4586 27.5155 69.3965 27.6152C68.1988 29.5387 66.9983 31.4622 65.7979 33.3856C64.0663 36.1611 62.3376 38.9337 60.6061 41.7092C60.5468 41.8061 60.479 41.8973 60.4282 41.997C60.3406 42.1652 60.2191 42.2307 60.0242 42.2278C58.6345 42.2193 57.2419 42.282 55.855 42.2107C53.6602 42.0968 51.4655 42.1595 49.2735 42.1566C38.2319 42.1452 27.1874 42.1509 16.1458 42.1509C16.0045 42.1509 15.8633 42.1509 15.6401 42.1509C15.835 41.9001 15.9989 41.732 16.1119 41.5354C16.3859 41.0624 16.7728 40.9512 17.3067 40.9512C29.8511 40.9683 42.3983 40.9655 54.9426 40.9626C55.6234 40.9626 55.5697 41.0111 55.5443 40.3443C55.5302 39.914 55.5132 39.4866 55.4935 39.0563C55.4906 38.9679 55.4765 38.8796 55.4652 38.7685C55.372 38.7514 55.2872 38.7229 55.1997 38.72C55.0669 38.7115 54.9313 38.7172 54.7958 38.7172C42.8446 38.7172 30.8934 38.7172 18.9422 38.7172H18.3998C18.5693 38.4978 18.6795 38.3467 18.7981 38.2042C18.9761 37.9877 19.123 37.6913 19.3546 37.5859C19.5975 37.4719 19.9223 37.5317 20.2133 37.5317C31.7718 37.5317 43.3304 37.5317 54.889 37.5317H55.4059C55.4539 36.7766 55.3776 36.0728 55.3466 35.3946C55.3127 35.3632 55.3042 35.3547 55.2957 35.3461C55.2873 35.3404 55.276 35.3347 55.2675 35.3319C55.2449 35.3262 55.2251 35.3205 55.2025 35.3176C55.1912 35.3176 55.1799 35.3176 55.1686 35.3176C55.1573 35.3176 55.146 35.3176 55.1347 35.3176C55.1121 35.3176 55.0895 35.3176 55.0669 35.3176C55.0443 35.3176 55.0217 35.3176 54.9991 35.3176C43.7767 35.3176 32.5543 35.3176 21.3319 35.3176C21.3206 35.3176 21.3093 35.3176 21.298 35.3176C21.2867 35.3176 21.2754 35.3176 21.2641 35.3176C21.2528 35.3176 21.2415 35.3176 21.2302 35.3119C21.2217 35.3091 21.2132 35.3005 21.1652 35.272C21.4533 34.913 21.7386 34.5568 22.0295 34.2091C22.0663 34.1664 22.1454 34.1465 22.2075 34.1408C22.329 34.1294 22.4533 34.1351 22.5775 34.1351C33.2943 34.1351 44.014 34.1351 54.7308 34.1351C54.9059 34.1351 55.0811 34.1208 55.3042 34.1123L55.3212 34.0952Z" fill="#036EAF"/>
<path d="M70.1509 42.1936C70.3458 40.4326 70.6283 38.7029 70.8317 36.9647C70.8091 36.9533 70.7837 36.9419 70.7611 36.9333C70.6989 37.0188 70.6311 37.0986 70.5746 37.1869C69.6171 38.7143 68.6595 40.2417 67.7019 41.7719C67.6426 41.8688 67.5777 41.96 67.5212 42.0569C67.4534 42.1765 67.3601 42.2392 67.2189 42.225C67.1624 42.2193 67.1059 42.225 67.0523 42.225C65.7642 42.225 64.4733 42.225 63.1853 42.225H62.7842C62.8717 42.0711 62.9311 41.9571 62.9989 41.8488C64.8603 38.8767 66.7218 35.9075 68.5832 32.9354C69.7018 31.1487 70.826 29.3649 71.9361 27.5725C72.0802 27.3417 72.2355 27.2619 72.5011 27.2647C73.8004 27.279 75.0998 27.2704 76.4019 27.2704H76.7748C76.7804 27.8774 76.642 28.4473 76.5799 29.0201C76.5149 29.6156 76.4132 30.2055 76.3341 30.7982C76.2579 31.3738 76.1873 31.9523 76.1138 32.5307C76.1421 32.5421 76.1675 32.5535 76.1957 32.5649C76.2692 32.4595 76.3483 32.3598 76.4161 32.2515C77.3821 30.7156 78.3453 29.1768 79.3085 27.638C79.3509 27.5725 79.3989 27.5069 79.4328 27.4385C79.4978 27.3132 79.591 27.2704 79.7322 27.2704C81.1898 27.2733 82.6445 27.2704 84.167 27.2704C84.0907 27.4072 84.0398 27.5098 83.9805 27.6067C82.5625 29.8721 81.1446 32.1346 79.7237 34.3972C78.173 36.8706 76.6223 39.3441 75.0715 41.8175C75.0546 41.846 75.032 41.8745 75.0207 41.9058C74.9105 42.1481 74.7382 42.2335 74.4642 42.2278C73.3654 42.2107 72.2666 42.2193 71.1706 42.2193C70.9362 42.2193 70.6989 42.2193 70.4645 42.2193C70.3769 42.2193 70.2922 42.205 70.1594 42.1908L70.1509 42.1936Z" fill="#036EAF"/>
<path d="M90.042 36.7423C90.0307 38.603 90.059 40.3954 90.0787 42.2049H85.4547C85.4434 42.0624 85.4293 41.9313 85.4265 41.8002C85.4067 40.3299 85.3898 38.8595 85.37 37.392C85.37 37.2609 85.3587 37.1298 85.3531 36.9759C85.1695 37.0158 85.1327 37.1469 85.0734 37.2438C84.113 38.7711 83.1555 40.3014 82.1979 41.8287C82.1499 41.9057 82.099 41.9798 82.0538 42.0596C81.986 42.1792 81.8928 42.2305 81.7544 42.2305C80.3082 42.2248 78.862 42.2248 77.4157 42.222C77.4044 42.222 77.396 42.2134 77.3423 42.1963C77.396 42.0995 77.4411 42.0026 77.4976 41.9142C79.2574 39.1045 81.0172 36.2949 82.777 33.4852C84.0057 31.5275 85.2344 29.5699 86.4547 27.6065C86.6016 27.37 86.7541 27.2703 87.0394 27.2703C89.7087 27.2817 92.3752 27.276 95.0445 27.2788C96.0557 27.2788 96.7534 27.9884 96.776 29.0028C96.7845 29.4188 96.6969 29.8121 96.5218 30.1825C96.4484 30.3364 96.3665 30.4817 96.2761 30.6271C95.3835 32.049 94.4909 33.4738 93.587 34.89C93.3864 35.2006 93.1633 35.5027 92.9119 35.7734C92.3272 36.406 91.5899 36.728 90.7284 36.7451C90.5194 36.7508 90.3075 36.7451 90.0477 36.7451L90.042 36.7423ZM87.3586 33.6818C88.1636 33.7189 88.8839 33.753 89.5788 33.4624C89.8245 33.3598 90.0109 33.186 90.1494 32.958C90.4431 32.4793 90.7482 32.0034 91.0391 31.5218C91.121 31.3879 91.186 31.2426 91.234 31.0944C91.3781 30.6413 91.186 30.3649 90.7143 30.3478C90.3895 30.3364 90.0646 30.3592 89.7398 30.3393C89.4969 30.325 89.3528 30.4133 89.2257 30.6214C88.672 31.5361 88.0986 32.4422 87.5365 33.3513C87.4857 33.4339 87.4433 33.5222 87.3586 33.679V33.6818Z" fill="#036EAF"/>
<path d="M102.909 62.3972C103.084 62.1236 103.262 61.8501 103.434 61.5736C103.499 61.4711 103.57 61.4055 103.702 61.4055C104.587 61.4112 105.468 61.4112 106.352 61.4141C106.372 61.4141 106.389 61.434 106.442 61.4682C106.25 61.7788 106.061 62.0894 105.869 62.4H102.909V62.3972Z" fill="#ED3337"/>
<path d="M149.976 60.7359C151.052 59.049 152.1 57.4048 153.151 55.7606C153.128 55.7435 153.105 55.7264 153.086 55.7093C153.004 55.7948 152.922 55.8802 152.843 55.9686C151.512 57.4675 150.176 58.9635 148.854 60.4709C148.665 60.6875 148.476 60.7758 148.193 60.7673C147.589 60.7473 146.984 60.7616 146.326 60.7616C146.917 59.0917 147.546 57.4817 148.14 55.8261C148.021 55.904 147.927 55.9961 147.857 56.1025C146.933 57.5472 146.004 58.9863 145.095 60.4367C144.945 60.6732 144.792 60.773 144.507 60.7673C143.699 60.7473 142.894 60.7587 142.086 60.7587H141.716C141.759 60.6618 141.781 60.5906 141.818 60.5279C143.366 58.1058 144.914 55.6836 146.462 53.2586C146.552 53.1162 146.643 53.0278 146.832 53.0278C148.278 53.0364 149.724 53.0307 151.17 53.0335C151.235 53.0335 151.3 53.0506 151.411 53.0649C150.976 54.2246 150.552 55.3588 150.106 56.5442C150.286 56.5043 150.343 56.3932 150.416 56.3105C151.3 55.3018 152.185 54.2959 153.06 53.2786C153.213 53.1019 153.368 53.0221 153.605 53.025C154.973 53.0364 156.34 53.0307 157.71 53.0307C157.817 53.0307 157.924 53.0421 158.077 53.0506C158.003 53.1846 157.955 53.2814 157.896 53.3726C156.385 55.7378 154.871 58.1029 153.365 60.4738C153.235 60.6761 153.103 60.7673 152.857 60.7644C152.015 60.7473 151.176 60.7587 150.334 60.7587C150.238 60.7587 150.142 60.7473 149.984 60.7359H149.976Z" fill="#ED3337"/>
<path d="M19.6856 53.0847C19.6178 53.1987 19.5613 53.3041 19.4963 53.4039C18.3608 55.1791 17.2253 56.9544 16.0926 58.7326C15.9711 58.9235 15.8553 59.1173 15.7649 59.3224C15.6745 59.5219 15.7338 59.6188 15.9542 59.6444C16.2818 59.6843 16.5841 59.6188 16.7987 59.3395C16.9767 59.1059 17.1462 58.8693 17.3044 58.6214C18.4371 56.8575 19.5669 55.0908 20.6883 53.3184C20.8267 53.099 20.9708 53.0163 21.225 53.022C22.1995 53.0363 23.174 53.0249 24.1485 53.0306C24.287 53.0306 24.4225 53.0847 24.561 53.1047C24.7756 53.136 24.8999 52.9907 25.0807 52.8254C24.8801 52.7997 24.7361 52.7826 24.5384 52.757C24.7389 52.4436 24.9112 52.1586 25.1033 51.885C25.1457 51.8223 25.2502 51.7739 25.3236 51.771C25.9281 51.7625 26.5326 51.7653 27.1738 51.7653C27.1342 51.8622 27.1173 51.9363 27.0806 51.9962C26.4874 53.0078 25.5552 53.4922 24.448 53.6803C24.1909 53.7259 24.0356 53.8427 23.9 54.0564C23.0272 55.4385 22.143 56.8148 21.2617 58.1883C21.0923 58.4533 20.9086 58.7098 20.7307 58.9719C20.4285 59.4222 20.0245 59.7499 19.5528 60.0063C18.7732 60.4309 17.9399 60.6788 17.0671 60.7985C15.9965 60.9467 14.9232 60.9695 13.8526 60.8042C13.5024 60.7501 13.1577 60.6389 12.816 60.5306C12.6606 60.4794 12.5081 60.3882 12.3753 60.2884C12.0392 60.0348 11.946 59.6815 12.1267 59.2968C12.2623 59.0118 12.4177 58.7354 12.5843 58.4704C13.5532 56.9373 14.5305 55.4071 15.505 53.8769C15.6491 53.6489 15.7988 53.421 15.94 53.193C16.0022 53.0904 16.0728 53.022 16.2056 53.022C17.327 53.0249 18.4455 53.0249 19.5669 53.0306C19.5952 53.0306 19.6234 53.0534 19.6827 53.0762L19.6856 53.0847Z" fill="#ED3337"/>
<path d="M1.09619 60.7416C1.91817 59.4365 2.72885 58.1969 3.54236 56.8975C3.29096 56.8776 3.10736 56.8605 2.86444 56.8406C3.01979 56.5955 3.13843 56.3818 3.28531 56.1908C3.33333 56.1282 3.46609 56.0883 3.54801 56.1025C3.95759 56.1709 4.16944 55.9686 4.36999 55.6323C4.84453 54.8401 5.36145 54.0736 5.85012 53.29C5.9631 53.1105 6.07891 53.0221 6.30206 53.025C7.88106 53.0421 9.46005 53.0392 11.0419 53.0563C11.6463 53.062 12.2508 53.0962 12.8412 53.2529C13.0333 53.3042 13.2282 53.3755 13.4005 53.4752C13.7536 53.6804 13.8552 53.9967 13.6858 54.3728C13.5615 54.6492 13.4174 54.9199 13.2536 55.1764C12.4824 56.396 11.6802 57.5957 10.9374 58.8296C10.2425 59.9836 9.22842 60.545 7.93472 60.6704C7.51102 60.7131 7.0845 60.7445 6.6608 60.7473C4.88973 60.7587 3.12148 60.7559 1.35041 60.7559C1.28544 60.7559 1.22048 60.7473 1.09619 60.7388V60.7416ZM8.30476 56.1196C8.19459 56.2963 8.09291 56.4416 8.01382 56.6012C7.9093 56.8092 7.75959 56.9089 7.52797 56.8719C7.3246 56.8406 7.20031 56.9346 7.09297 57.1084C6.65797 57.8066 6.20885 58.4962 5.7682 59.1914C5.71736 59.2712 5.68629 59.3596 5.61849 59.4992C5.85012 59.4821 6.01677 59.465 6.1806 59.4593C6.61843 59.4422 6.94326 59.2256 7.18901 58.8751C7.28505 58.7355 7.38956 58.6016 7.47995 58.4591C8.18612 57.3592 8.88946 56.2564 9.59281 55.1565C9.67755 55.0225 9.75664 54.8857 9.82161 54.7433C9.91482 54.5324 9.86963 54.427 9.64365 54.3671C9.48265 54.3272 9.31317 54.3272 9.14651 54.3073C8.9742 54.2873 8.85557 54.3443 8.75953 54.5039C8.49119 54.9484 8.20307 55.3787 7.92625 55.8175C7.88106 55.8888 7.85281 55.9714 7.80479 56.074C7.97992 56.0911 8.12115 56.1054 8.30476 56.1225V56.1196Z" fill="#ED3337"/>
<path d="M33.656 52.82C33.526 52.8029 33.3961 52.7887 33.2294 52.7659C33.3792 52.4125 33.5967 52.1333 33.7944 51.8426C33.8254 51.7999 33.913 51.7742 33.9723 51.7742C34.5542 51.7714 35.1389 51.7742 35.7208 51.7742C35.7491 51.7742 35.7773 51.7999 35.8366 51.8284C35.5739 52.29 35.2717 52.7174 34.8339 52.9967C34.413 53.2645 33.9413 53.4498 33.5091 53.6635C33.5289 53.8743 33.5995 54.1109 33.5628 54.3303C33.526 54.5554 33.4102 54.7805 33.2859 54.9771C32.4866 56.2452 31.6787 57.5076 30.868 58.7699C30.433 59.4481 29.8031 59.887 29.08 60.209C28.2185 60.5908 27.3118 60.7874 26.3824 60.8701C25.5096 60.947 24.634 60.9669 23.7668 60.8159C23.4391 60.7589 23.1143 60.662 22.7979 60.5509C22.6341 60.4939 22.4759 60.3856 22.3432 60.2716C22.0296 60.0038 21.942 59.6447 22.1059 59.2629C22.2217 58.995 22.3601 58.7329 22.5155 58.485C23.1567 57.462 23.8318 56.4618 24.4504 55.4274C25.1904 54.1907 26.3033 53.5296 27.6451 53.1905C29.0743 52.8314 30.5206 52.7488 31.9781 52.9824C32.1871 53.0166 32.4075 53.0508 32.5939 53.142C32.8961 53.293 33.156 53.2161 33.4187 53.0708C33.5119 53.0195 33.5938 52.9482 33.6814 52.8884C33.6729 52.8656 33.6616 52.8428 33.6531 52.8172L33.656 52.82ZM25.9842 59.6561C26.3768 59.6675 26.648 59.5593 26.8457 59.2942C27.0123 59.0691 27.1818 58.844 27.3343 58.6075C28.1027 57.4135 28.8653 56.2196 29.628 55.0227C29.7184 54.8803 29.8059 54.7349 29.8794 54.5839C30.0319 54.2647 29.9415 54.1223 29.5828 54.1194C29.5263 54.1194 29.4726 54.1251 29.4161 54.1337C29.1082 54.1736 28.8681 54.3274 28.6958 54.5839C28.4021 55.0227 28.1083 55.4644 27.823 55.9089C27.1959 56.8835 26.5745 57.8609 25.9531 58.8412C25.8514 59.0007 25.7582 59.1717 25.6876 59.3484C25.6226 59.5137 25.6819 59.602 25.857 59.6419C25.922 59.6561 25.9898 59.659 25.987 59.659L25.9842 59.6561Z" fill="#ED3337"/>
<path d="M39.1388 53.0335C39.0936 54.1989 39.0513 55.3074 39.0117 56.4187L39.0824 56.4501C39.1501 56.3561 39.2208 56.2649 39.2829 56.168C39.8902 55.2191 40.5032 54.273 41.0992 53.3184C41.2263 53.1132 41.3647 53.0249 41.6076 53.0278C42.3929 53.042 43.1753 53.0335 43.9606 53.0335C44.0594 53.0335 44.1611 53.0335 44.3165 53.0335C44.2515 53.1617 44.2148 53.25 44.1639 53.327C42.6358 55.7206 41.1048 58.1114 39.5823 60.5079C39.4665 60.6874 39.345 60.7672 39.1247 60.7643C38.2519 60.7501 37.3762 60.7586 36.5034 60.7586C36.4159 60.7586 36.3283 60.7472 36.1927 60.7415C36.2436 59.6017 36.4074 58.4847 36.4611 57.3591C36.4356 57.3506 36.413 57.342 36.3876 57.3306C36.3198 57.4275 36.2492 57.5215 36.1842 57.6213C35.5713 58.5787 34.9527 59.5362 34.351 60.5022C34.2296 60.6988 34.0912 60.77 33.8624 60.7643C33.0658 60.7501 32.2721 60.7586 31.4755 60.7586C31.3795 60.7586 31.2834 60.7472 31.145 60.7387C31.2185 60.6105 31.2665 60.5136 31.3258 60.4224C32.837 58.0572 34.3482 55.695 35.8538 53.327C35.9893 53.1132 36.1334 53.0192 36.3933 53.0249C37.1757 53.042 37.961 53.0306 38.7462 53.0306H39.1417L39.1388 53.0335Z" fill="#ED3337"/>
<path d="M130.502 56.4473C130.567 56.3504 130.638 56.2564 130.7 56.1566C131.307 55.2077 131.92 54.2617 132.516 53.3042C132.646 53.0962 132.79 53.0193 133.03 53.025C133.816 53.0392 134.598 53.0306 135.383 53.0306C135.482 53.0306 135.581 53.0392 135.717 53.0477C135.666 53.1532 135.635 53.233 135.59 53.3042C134.056 55.7064 132.522 58.1086 130.985 60.5136C130.892 60.659 130.802 60.7672 130.593 60.7644C129.675 60.7501 128.757 60.7587 127.836 60.7558C127.771 60.7558 127.706 60.7444 127.601 60.7359C127.661 59.5961 127.808 58.4819 127.878 57.3392C127.706 57.3734 127.672 57.5045 127.61 57.6014C127 58.5503 126.387 59.4963 125.794 60.4509C125.652 60.6761 125.503 60.7729 125.232 60.7644C124.469 60.7444 123.709 60.7587 122.946 60.7587C122.836 60.7587 122.723 60.7587 122.568 60.7587C122.619 60.6504 122.647 60.5706 122.692 60.4994C124.232 58.0858 125.774 55.6751 127.313 53.2615C127.404 53.119 127.494 53.0249 127.681 53.0278C128.565 53.0363 129.452 53.0335 130.336 53.0335C130.389 53.0335 130.443 53.0477 130.545 53.062C130.533 54.1847 130.446 55.3018 130.429 56.4188C130.454 56.4273 130.48 56.4387 130.502 56.4473Z" fill="#ED3337"/>
<path d="M49.0112 55.8117C49.2202 55.4783 49.3897 55.2133 49.5535 54.9454C49.6411 54.8001 49.723 54.6519 49.7908 54.498C49.884 54.2786 49.8332 54.1817 49.6016 54.1418C49.2513 54.082 48.9265 54.1447 48.6807 54.4239C48.531 54.5921 48.3954 54.7744 48.274 54.9625C47.452 56.242 46.6328 57.5243 45.8165 58.8094C45.7205 58.9605 45.6329 59.12 45.5651 59.2882C45.4775 59.5047 45.5369 59.613 45.7657 59.6472C46.1498 59.7042 46.5114 59.6415 46.7854 59.3395C46.9718 59.1314 47.1384 58.9006 47.2966 58.6698C47.4802 58.4048 47.6441 58.1255 47.8587 57.7893C47.5989 57.775 47.404 57.7665 47.178 57.7551C47.2119 57.6696 47.2317 57.5984 47.2684 57.5385C47.404 57.3191 47.5565 57.1054 47.6808 56.8803C47.7797 56.7008 47.9096 56.6381 48.113 56.6409C49.1892 56.6495 50.2654 56.6438 51.3416 56.6438C51.5873 56.6438 51.8302 56.6438 52.1183 56.6438C52.0619 56.7577 52.0336 56.8404 51.9884 56.9088C51.2201 58.117 50.4461 59.3195 49.6807 60.5306C49.5705 60.7044 49.449 60.7699 49.2457 60.7671C48.6751 60.7557 48.1017 60.7642 47.5311 60.7614C47.4435 60.7614 47.3559 60.7528 47.2486 60.7443C47.2317 60.579 47.2147 60.428 47.1949 60.2314C47.0622 60.2912 46.9548 60.3397 46.8475 60.3909C45.6244 60.9666 44.3505 61.0748 43.0455 60.7585C42.78 60.693 42.5173 60.5676 42.28 60.4223C41.8535 60.1601 41.7264 59.7355 41.9298 59.2768C42.071 58.9576 42.2433 58.6499 42.4269 58.3564C43.0088 57.4302 43.5963 56.507 44.1923 55.5923C44.4211 55.2446 44.6782 54.9141 44.9324 54.5864C45.2431 54.1874 45.6385 53.8968 46.0961 53.6887C47.0537 53.2499 48.0565 52.9992 49.1044 52.908C49.9914 52.831 50.8727 52.8424 51.7511 52.9821C52.1861 53.0504 52.6042 53.1758 52.9827 53.4038C53.4572 53.6916 53.59 54.0022 53.381 54.5123C53.2115 54.9255 52.9658 55.3102 52.7539 55.7062C52.6833 55.8402 52.5562 55.8345 52.4319 55.8345C51.9489 55.8345 51.4687 55.8345 50.9857 55.8345C50.4603 55.8345 49.9321 55.8345 49.4067 55.8345C49.2993 55.8345 49.1892 55.8231 49.014 55.8117H49.0112Z" fill="#ED3337"/>
<path d="M88.5054 60.7389C89.4403 58.1514 90.3584 55.6096 91.2848 53.0535H95.166C94.4231 54.8431 93.618 56.5699 92.7847 58.2854C92.8045 58.2968 92.8215 58.3082 92.8412 58.3196C92.9175 58.2284 92.9966 58.1372 93.0729 58.0432C94.3412 56.4616 95.6094 54.8801 96.8721 53.2929C97.0189 53.1105 97.1686 53.0251 97.4087 53.0279C98.4736 53.0393 99.5386 53.0336 100.603 53.0336C100.691 53.0336 100.781 53.0421 100.914 53.0478C100.849 53.1447 100.807 53.2188 100.753 53.2787C98.6149 55.7008 96.4738 58.1229 94.3355 60.5451C94.2197 60.6762 94.1095 60.7645 93.9118 60.7645C92.1972 60.7559 90.4826 60.7588 88.7681 60.7588C88.7031 60.7588 88.6353 60.7502 88.511 60.7389H88.5054Z" fill="#ED3337"/>
<path d="M143.759 53.0335C142.81 55.6437 141.883 58.1941 140.954 60.7473H137.194C137.417 60.2914 137.627 59.8639 137.869 59.3738C137.601 59.3681 137.392 59.3852 137.189 59.3539C136.68 59.2798 136.313 59.4508 136.042 59.901C135.887 60.1603 135.666 60.3769 135.48 60.6191C135.403 60.7188 135.322 60.7616 135.197 60.7616C134.042 60.7587 132.89 60.7616 131.734 60.7559C131.706 60.7559 131.675 60.7388 131.613 60.7188C131.703 60.6105 131.777 60.5165 131.856 60.4253C133.952 58.0545 136.048 55.6836 138.138 53.3071C138.307 53.1161 138.474 53.0221 138.739 53.025C140.276 53.0364 141.81 53.0307 143.346 53.0307H143.762L143.759 53.0335ZM140.076 54.8857C140.053 54.8686 140.03 54.8544 140.008 54.8373C139.101 55.8603 138.191 56.8776 137.307 57.9946C137.451 58.0174 137.536 58.0402 137.618 58.0402C137.852 58.0459 138.09 58.0288 138.324 58.0459C138.547 58.0602 138.663 57.9747 138.756 57.7667C139.146 56.8918 139.559 56.0256 139.96 55.1564C140.002 55.0681 140.036 54.9741 140.076 54.8829V54.8857Z" fill="#ED3337"/>
<path d="M76.354 53.0563C75.4134 55.6437 74.4897 58.1856 73.5604 60.7388H69.8148C69.9872 60.2743 70.2583 59.8754 70.4589 59.3795C70.2301 59.371 70.0408 59.3824 69.8629 59.351C69.2838 59.2485 68.8799 59.4736 68.5861 59.9722C68.4505 60.2031 68.2528 60.3968 68.0862 60.6106C68.0127 60.7046 67.9336 60.7587 67.8065 60.7587C66.6427 60.753 65.4762 60.7559 64.3124 60.753C64.2926 60.753 64.2757 60.7359 64.2305 60.716C64.2757 60.6533 64.3152 60.5878 64.3632 60.5336C66.51 58.1029 68.6567 55.6751 70.8007 53.2444C70.9306 53.0991 71.0605 53.0278 71.2583 53.0278C72.8485 53.0335 74.4388 53.0307 76.0291 53.0335C76.1167 53.0335 76.2043 53.0449 76.3568 53.0563H76.354ZM72.6791 54.8829C72.6565 54.8687 72.6339 54.8544 72.6141 54.8402C71.7017 55.8575 70.7978 56.8805 69.9081 57.9975C70.0549 58.0203 70.1397 58.0402 70.2244 58.0431C70.4589 58.0488 70.6961 58.0317 70.9306 58.0488C71.1566 58.0659 71.2696 57.9718 71.3599 57.7667C71.7526 56.8919 72.1622 56.0256 72.5633 55.1565C72.6056 55.0681 72.6395 54.9741 72.6762 54.8858L72.6791 54.8829Z" fill="#ED3337"/>
<path d="M60.502 58.0717C60.3127 58.368 60.1432 58.6302 59.9766 58.8981C59.906 59.012 59.8353 59.1289 59.7817 59.2543C59.68 59.4908 59.7337 59.5991 59.9766 59.6389C60.3946 59.7045 60.7816 59.6304 61.1036 59.334C61.3578 59.1032 61.5273 58.8097 61.6347 58.482C61.7138 58.2398 61.6827 58.1258 61.4708 57.989C61.2449 57.8437 61.0048 57.7183 60.7647 57.5986C60.2534 57.3422 59.7421 57.0886 59.2252 56.8435C58.4032 56.4503 58.471 55.8234 58.7733 55.2762C59.2902 54.3387 60.0161 53.6577 61.0443 53.3328C61.7646 53.1049 62.4962 52.9709 63.2476 52.9054C64.0102 52.8399 64.7672 52.8399 65.5299 52.9111C66.0214 52.9567 66.5072 53.0365 66.9705 53.216C67.0948 53.2644 67.219 53.3243 67.3292 53.3984C67.5975 53.5751 67.6625 53.7517 67.5806 54.0652C67.4648 54.4983 67.219 54.8659 66.9705 55.2278C66.9309 55.2876 66.8208 55.3247 66.7417 55.3247C65.6881 55.3304 64.6373 55.3275 63.5413 55.3275C63.5922 55.2221 63.6232 55.1452 63.6656 55.0739C63.7758 54.8773 63.9057 54.6921 64.0017 54.4898C64.095 54.2903 64.0413 54.1906 63.8294 54.145C63.5074 54.0766 63.2052 54.1564 62.934 54.3359C62.6741 54.5097 62.499 54.7576 62.3917 55.0511C62.3069 55.2876 62.3352 55.4102 62.5442 55.5441C62.7222 55.6581 62.9199 55.7464 63.112 55.8348C63.6006 56.0627 64.095 56.2736 64.5751 56.513C64.8039 56.6269 65.0158 56.7808 65.2248 56.9318C65.4649 57.1057 65.5581 57.3564 65.5045 57.6471C65.4677 57.8352 65.4225 58.0232 65.3435 58.1942C65.1062 58.71 64.7898 59.1745 64.3944 59.582C63.9933 59.998 63.4961 60.2459 62.9566 60.4197C61.7053 60.8244 60.4201 60.9554 59.1122 60.9156C58.519 60.8985 57.923 60.8614 57.3525 60.679C57.0982 60.5993 56.8497 60.4881 56.618 60.357C56.3327 60.1975 56.2169 59.9353 56.3045 59.6105C56.3582 59.4167 56.4203 59.2201 56.5135 59.0405C56.6661 58.7527 56.8468 58.4792 57.0107 58.1971C57.0785 58.0802 57.1689 58.0175 57.3073 58.0175C58.327 58.0204 59.3467 58.0175 60.3664 58.0232C60.3975 58.0232 60.4257 58.0432 60.5048 58.0717H60.502Z" fill="#ED3337"/>
<path d="M108.795 56.0541H111.001C110.959 56.151 110.945 56.2022 110.916 56.2478C110.693 56.6012 110.462 56.9488 110.247 57.305C110.159 57.4475 110.052 57.4988 109.891 57.496C109.298 57.4874 108.702 57.5045 108.109 57.4874C107.866 57.4817 107.719 57.5643 107.597 57.7752C107.371 58.1656 107.114 58.536 106.874 58.9179C106.821 59.0005 106.775 59.0917 106.696 59.2342C106.855 59.2484 106.97 59.2655 107.083 59.2655C107.71 59.2684 108.338 59.2655 108.967 59.2655C109.086 59.2655 109.202 59.2741 109.363 59.2826C109.304 59.3966 109.272 59.465 109.233 59.5277C109.015 59.8696 108.792 60.2087 108.58 60.5564C108.496 60.696 108.4 60.7616 108.23 60.7587C106.236 60.753 104.239 60.7559 102.245 60.753C102.194 60.753 102.14 60.7416 102.05 60.7331C102.12 60.6105 102.168 60.5137 102.228 60.4225C103.739 58.0573 105.253 55.6922 106.756 53.3242C106.891 53.1076 107.038 53.0221 107.295 53.025C109.111 53.0364 110.928 53.0307 112.744 53.0307C112.843 53.0307 112.945 53.0307 113.083 53.0307C113.043 53.1304 113.026 53.2016 112.99 53.2615C112.769 53.6148 112.535 53.9625 112.32 54.3187C112.227 54.4754 112.111 54.5238 111.936 54.5238C111.286 54.5153 110.637 54.5295 109.987 54.5153C109.77 54.5124 109.634 54.5808 109.524 54.7689C109.284 55.1735 109.024 55.5668 108.77 55.9657C108.781 55.9942 108.792 56.0256 108.804 56.0541H108.795Z" fill="#ED3337"/>
<path d="M121.977 53.0337C121.913 53.1591 121.879 53.2389 121.833 53.3101C121.636 53.6236 121.424 53.9313 121.237 54.2533C121.124 54.4499 120.989 54.5354 120.754 54.5269C120.229 54.5098 119.701 54.5354 119.175 54.5155C118.913 54.5041 118.771 54.6067 118.639 54.8204C117.458 56.6868 116.266 58.5448 115.077 60.4055C115.003 60.5195 114.93 60.6307 114.851 60.7503H111.193C111.275 60.6107 111.334 60.4967 111.405 60.3913C112.563 58.579 113.724 56.7666 114.882 54.9515C114.953 54.8403 115.02 54.7235 115.102 54.5896C114.851 54.4727 114.616 54.5383 114.39 54.5269C114.167 54.5155 113.941 54.5269 113.718 54.5269C113.495 54.5269 113.252 54.5269 112.975 54.5269C113.032 54.4129 113.06 54.3331 113.105 54.2619C113.309 53.937 113.529 53.6236 113.718 53.2902C113.828 53.0992 113.961 53.0337 114.179 53.0337C115.255 53.0451 116.328 53.0394 117.404 53.0394C118.794 53.0394 120.181 53.0394 121.571 53.0394H121.975L121.977 53.0337Z" fill="#ED3337"/>
<path d="M75.8486 60.7586C77.1819 58.6527 78.4897 56.6352 79.7975 54.5636C79.3964 54.481 79.0518 54.5294 78.7129 54.5208C78.3767 54.5123 78.0434 54.5208 77.6706 54.5208C77.7073 54.4268 77.7242 54.3527 77.7609 54.2957C77.97 53.9623 78.1931 53.6346 78.3908 53.2955C78.5067 53.0932 78.6535 53.0305 78.8795 53.0305C81.1873 53.0362 83.495 53.0362 85.8028 53.0334C86.0711 53.0334 86.3395 53.0334 86.6445 53.0334C86.5993 53.136 86.5796 53.2072 86.5428 53.2699C86.3338 53.6033 86.1078 53.9281 85.9101 54.2701C85.8 54.4582 85.6757 54.5351 85.4525 54.5294C84.9497 54.5123 84.4441 54.5465 83.9413 54.5151C83.6165 54.4952 83.4414 54.6234 83.2719 54.8913C82.1081 56.7407 80.9217 58.5758 79.7552 60.4252C79.5998 60.6702 79.4416 60.7757 79.1422 60.77C78.179 60.7472 77.2158 60.7614 76.2526 60.7614C76.1452 60.7614 76.0351 60.7614 75.8515 60.7614L75.8486 60.7586Z" fill="#ED3337"/>
<path d="M105.346 53.065C105.194 53.3072 105.075 53.4981 104.953 53.689C103.51 55.9487 102.064 58.2027 100.629 60.4653C100.493 60.679 100.352 60.7702 100.092 60.7645C99.1177 60.7474 98.1432 60.7588 97.1687 60.7588C97.0585 60.7588 96.9483 60.7588 96.793 60.7588C96.8466 60.6448 96.8749 60.565 96.9201 60.4938C98.4595 58.0831 99.999 55.6723 101.538 53.2616C101.637 53.1048 101.745 53.0251 101.94 53.0279C102.982 53.0365 104.021 53.0308 105.064 53.0336C105.137 53.0336 105.211 53.0507 105.343 53.065H105.346Z" fill="#ED3337"/>
<path d="M72.0853 51.5743H73.1022C73.2519 52.0017 73.6191 52.0844 74.0089 52.1015C74.5823 52.13 75.119 52.0217 75.5794 51.6427C75.6359 51.5971 75.7179 51.5686 75.7913 51.5657C76.0794 51.5572 76.3675 51.5629 76.7404 51.5629C76.6189 51.7054 76.5483 51.7994 76.4664 51.8792C76.1472 52.1756 75.7574 52.3522 75.3422 52.4577C74.5287 52.6628 73.7067 52.697 72.8847 52.5432C72.6587 52.5004 72.4328 52.4064 72.2379 52.2867C71.9752 52.1243 71.9413 51.8906 72.0853 51.5771V51.5743Z" fill="#ED3337"/>
<path d="M112.574 52.6232C112.176 52.6232 111.778 52.6289 111.38 52.6175C111.303 52.6175 111.224 52.5434 111.162 52.4865C111.041 52.3725 110.931 52.2471 110.792 52.0989C110.527 52.2328 110.264 52.3554 110.013 52.495C109.84 52.5919 109.665 52.6346 109.467 52.6289C109.092 52.6204 108.716 52.6289 108.326 52.5748C108.38 52.5434 108.431 52.5064 108.484 52.4808C108.905 52.2699 109.32 52.0505 109.747 51.8538C109.883 51.7912 110.044 51.7541 110.196 51.7484C110.642 51.7342 111.092 51.7484 111.538 51.7399C111.719 51.737 111.857 51.7855 111.981 51.9222C112.182 52.1417 112.394 52.3497 112.603 52.5634C112.591 52.5833 112.583 52.6061 112.572 52.6261L112.574 52.6232Z" fill="#ED3337"/>
<path d="M28.8116 51.5517C29.3369 51.5517 29.8623 51.5517 30.3877 51.5517C30.4527 51.5517 30.5346 51.5602 30.5742 51.6001C30.8538 51.868 31.125 52.1472 31.4526 52.4778C30.995 52.4778 30.608 52.4778 30.2211 52.4778C30.1787 52.4778 30.1307 52.4607 30.094 52.4379C29.6561 52.1672 29.2211 51.8965 28.7861 51.6229C28.7946 51.5973 28.8031 51.5745 28.8116 51.5488V51.5517Z" fill="#ED3337"/>
<path d="M73.978 51.3894C74.2718 51.1899 74.5656 50.9847 74.865 50.791C74.9243 50.7511 75.0147 50.7454 75.0881 50.7425C75.4808 50.7368 75.8734 50.7425 76.2773 50.7653C75.9412 50.9904 75.5768 51.1643 75.2237 51.358C74.8311 51.5746 74.413 51.4179 74.0119 51.472C74.0006 51.4435 73.9893 51.415 73.978 51.3894Z" fill="#ED3337"/>
</svg>
