<svg width="40" height="40" viewBox="0 0 40 40" fill="none" xmlns="http://www.w3.org/2000/svg">
<path d="M22.4998 31.875C22.4998 32.3695 22.3532 32.8528 22.0785 33.2639C21.8038 33.6751 21.4133 33.9955 20.9565 34.1847C20.4997 34.3739 19.997 34.4234 19.5121 34.327C19.0271 34.2305 18.5817 33.9924 18.232 33.6428C17.8824 33.2931 17.6443 32.8477 17.5478 32.3627C17.4514 31.8778 17.5009 31.3751 17.6901 30.9183C17.8793 30.4615 18.1998 30.071 18.6109 29.7963C19.022 29.5216 19.5053 29.375 19.9998 29.375C20.6628 29.375 21.2987 29.6384 21.7676 30.1072C22.2364 30.5761 22.4998 31.212 22.4998 31.875ZM37.4389 13.1109C32.5218 9.07822 26.3591 6.87427 19.9998 6.87427C13.6405 6.87427 7.4778 9.07822 2.56073 13.1109C2.37042 13.2672 2.21275 13.4594 2.09671 13.6766C1.98068 13.8938 1.90856 14.1317 1.88448 14.3768C1.86039 14.6218 1.88481 14.8692 1.95634 15.1048C2.02787 15.3405 2.14511 15.5597 2.30136 15.75C2.45761 15.9403 2.64982 16.098 2.86701 16.214C3.0842 16.3301 3.32211 16.4022 3.56717 16.4263C3.81223 16.4503 4.05964 16.4259 4.29526 16.3544C4.53088 16.2829 4.75011 16.1656 4.94042 16.0094C9.18673 12.5274 14.5084 10.6245 19.9998 10.6245C25.4912 10.6245 30.8129 12.5274 35.0592 16.0094C35.2495 16.1656 35.4687 16.2829 35.7043 16.3544C35.94 16.4259 36.1874 16.4503 36.4324 16.4263C36.6775 16.4022 36.9154 16.3301 37.1326 16.214C37.3498 16.098 37.542 15.9403 37.6982 15.75C37.8545 15.5597 37.9717 15.3405 38.0433 15.1048C38.1148 14.8692 38.1392 14.6218 38.1151 14.3768C38.091 14.1317 38.0189 13.8938 37.9029 13.6766C37.7868 13.4594 37.6292 13.2672 37.4389 13.1109ZM32.4139 18.6938C28.8806 15.8966 24.5062 14.3747 19.9998 14.3747C15.4934 14.3747 11.119 15.8966 7.58574 18.6938C7.20572 19.0057 6.96342 19.4544 6.91102 19.9432C6.85862 20.4321 7.00031 20.9219 7.30558 21.3073C7.61085 21.6927 8.05528 21.9427 8.54313 22.0036C9.03098 22.0645 9.52323 21.9313 9.91386 21.6328C12.7845 19.3604 16.3385 18.1239 19.9998 18.1239C23.6611 18.1239 27.215 19.3604 30.0857 21.6328C30.4764 21.9313 30.9686 22.0645 31.4565 22.0036C31.9443 21.9427 32.3887 21.6927 32.694 21.3073C32.9993 20.9219 33.141 20.4321 33.0886 19.9432C33.0362 19.4544 32.7939 19.0057 32.4139 18.6938ZM27.3545 24.2656C25.217 22.7118 22.6424 21.8748 19.9998 21.8748C17.3572 21.8748 14.7826 22.7118 12.6451 24.2656C12.2431 24.5586 11.974 24.9993 11.897 25.4907C11.8199 25.9821 11.9412 26.484 12.2342 26.8859C12.5272 27.2879 12.9678 27.557 13.4592 27.6341C13.9506 27.7112 14.4525 27.5899 14.8545 27.2969C16.3498 26.2097 18.1511 25.6242 19.9998 25.6242C21.8485 25.6242 23.6498 26.2097 25.1451 27.2969C25.3441 27.4419 25.5698 27.5464 25.8092 27.6043C26.0486 27.6621 26.2971 27.6723 26.5404 27.6341C26.7837 27.5959 27.0171 27.5102 27.2273 27.3819C27.4375 27.2535 27.6204 27.085 27.7654 26.8859C27.9105 26.6869 28.0149 26.4612 28.0728 26.2218C28.1307 25.9824 28.1408 25.734 28.1026 25.4907C28.0645 25.2474 27.9788 25.0139 27.8504 24.8037C27.722 24.5935 27.5535 24.4107 27.3545 24.2656Z" fill="#00317B"/>
</svg>
